HIERARCHY
ROOT hip
{
  OFFSET 0 0 0
  CHANNELS 6 Xposition Yposition Zposition Zrotation Yrotation Xrotation
  JOINT abdomen
  {
    OFFSET 0 20.6881 -0.73152
    CHANNELS 3 Zrotation Xrotation Yrotation
    JOINT chest
    {
      OFFSET 0 11.7043 -0.48768
      CHANNELS 3 Zrotation Xrotation Yrotation
      JOINT neck
      {
        OFFSET 0 22.1894 -2.19456
        CHANNELS 3 Zrotation Xrotation Yrotation
        JOINT head
        {
          OFFSET -0.24384 7.07133 1.2192
          CHANNELS 3 Zrotation Xrotation Yrotation
          JOINT leftEye
          {
            OFFSET 4.14528 8.04674 8.04672
            CHANNELS 3 Zrotation Xrotation Yrotation
            End Site
            {
              OFFSET 1 0 0
            }
          }
          JOINT rightEye
          {
            OFFSET -3.6576 8.04674 8.04672
            CHANNELS 3 Zrotation Xrotation Yrotation
            End Site
            {
              OFFSET 1 0 0
            }
          }
        }
      }
      JOINT rCollar
      {
        OFFSET -2.68224 19.2634 -4.8768
        CHANNELS 3 Zrotation Xrotation Yrotation
        JOINT rShldr
        {
          OFFSET -8.77824 -1.95073 1.46304
          CHANNELS 3 Zrotation Xrotation Yrotation
          JOINT rForeArm
          {
            OFFSET -28.1742 -1.7115 0.48768
            CHANNELS 3 Zrotation Xrotation Yrotation
            JOINT rHand
            {
              OFFSET -22.5879 0.773209 7.07136
              CHANNELS 3 Zrotation Xrotation Yrotation
              JOINT rThumb1
              {
                OFFSET -1.2192 -0.487915 3.41376
                CHANNELS 3 Zrotation Xrotation Yrotation
                JOINT rThumb2
                {
                  OFFSET -3.37035 -0.52449 3.41376
                  CHANNELS 3 Zrotation Xrotation Yrotation
                  End Site
                  {
                    OFFSET -1.78271 -1.18214 1.43049
                  }
                }
              }
              JOINT rIndex1
              {
                OFFSET -7.75947 0.938293 5.60832
                CHANNELS 3 Zrotation Xrotation Yrotation
                JOINT rIndex2
                {
                  OFFSET -2.54057 -0.884171 1.56538
                  CHANNELS 3 Zrotation Xrotation Yrotation
                  End Site
                  {
                    OFFSET -1.62519 -0.234802 1.16502
                  }
                }
              }
              JOINT rMid1
              {
                OFFSET -8.24714 1.18213 3.41376
                CHANNELS 3 Zrotation Xrotation Yrotation
                JOINT rMid2
                {
                  OFFSET -3.10165 -0.590103 1.0647
                  CHANNELS 3 Zrotation Xrotation Yrotation
                  End Site
                  {
                    OFFSET -2.48547 -0.328903 0.83742
                  }
                }
              }
              JOINT rRing1
              {
                OFFSET -8.82822 0.546677 1.51678
                CHANNELS 3 Zrotation Xrotation Yrotation
                JOINT rRing2
                {
                  OFFSET -2.60934 -0.819778 -0.0198488
                  CHANNELS 3 Zrotation Xrotation Yrotation
                  End Site
                  {
                    OFFSET -2.33842 -0.294052 0.168128
                  }
                }
              }
              JOINT rPinky1
              {
                OFFSET -8.27202 -0.0477905 -0.4584
                CHANNELS 3 Zrotation Xrotation Yrotation
                JOINT rPinky2
                {
                  OFFSET -1.82734 -0.647385 -0.700984
                  CHANNELS 3 Zrotation Xrotation Yrotation
                  End Site
                  {
                    OFFSET -1.69225 -0.51767 -0.607171
                  }
                }
              }
            }
          }
        }
      }
      JOINT lCollar
      {
        OFFSET 2.68224 19.2634 -4.8768
        CHANNELS 3 Zrotation Xrotation Yrotation
        JOINT lShldr
        {
          OFFSET 8.77824 -1.95073 1.46304
          CHANNELS 3 Zrotation Xrotation Yrotation
          JOINT lForeArm
          {
            OFFSET 28.1742 -1.7115 0.48768
            CHANNELS 3 Zrotation Xrotation Yrotation
            JOINT lHand
            {
              OFFSET 22.5879 0.773209 7.07136
              CHANNELS 3 Zrotation Xrotation Yrotation
              JOINT lThumb1
              {
                OFFSET 1.2192 -0.487915 3.41376
                CHANNELS 3 Zrotation Xrotation Yrotation
                JOINT lThumb2
                {
                  OFFSET 3.37035 -0.52449 3.41376
                  CHANNELS 3 Zrotation Xrotation Yrotation
                  End Site
                  {
                    OFFSET 1.78271 -1.18214 1.43049
                  }
                }
              }
              JOINT lIndex1
              {
                OFFSET 7.75947 0.938293 5.60832
                CHANNELS 3 Zrotation Xrotation Yrotation
                JOINT lIndex2
                {
                  OFFSET 2.54057 -0.884171 1.56538
                  CHANNELS 3 Zrotation Xrotation Yrotation
                  End Site
                  {
                    OFFSET 1.62519 -0.234802 1.16502
                  }
                }
              }
              JOINT lMid1
              {
                OFFSET 8.24714 1.18213 3.41376
                CHANNELS 3 Zrotation Xrotation Yrotation
                JOINT lMid2
                {
                  OFFSET 3.10165 -0.590103 1.0647
                  CHANNELS 3 Zrotation Xrotation Yrotation
                  End Site
                  {
                    OFFSET 2.48547 -0.328903 0.83742
                  }
                }
              }
              JOINT lRing1
              {
                OFFSET 8.82822 0.546677 1.51678
                CHANNELS 3 Zrotation Xrotation Yrotation
                JOINT lRing2
                {
                  OFFSET 2.60934 -0.819778 -0.0198488
                  CHANNELS 3 Zrotation Xrotation Yrotation
                  End Site
                  {
                    OFFSET 2.33842 -0.294052 0.168128
                  }
                }
              }
              JOINT lPinky1
              {
                OFFSET 8.27202 -0.0477905 -0.4584
                CHANNELS 3 Zrotation Xrotation Yrotation
                JOINT lPinky2
                {
                  OFFSET 1.82734 -0.647385 -0.700984
                  CHANNELS 3 Zrotation Xrotation Yrotation
                  End Site
                  {
                    OFFSET 1.69225 -0.51767 -0.607171
                  }
                }
              }
            }
          }
        }
      }
    }
  }
  JOINT rButtock
  {
    OFFSET -8.77824 4.35084 1.2192
    CHANNELS 3 Zrotation Xrotation Yrotation
    JOINT rThigh
    {
      OFFSET 0 -1.70687 -2.19456
      CHANNELS 3 Zrotation Xrotation Yrotation
      JOINT rShin
      {
        OFFSET 0 -36.8199 0.73152
        CHANNELS 3 Zrotation Xrotation Yrotation
        JOINT rFoot
        {
          OFFSET 0.73152 -45.1104 -5.12064
          CHANNELS 3 Zrotation Xrotation Yrotation
          End Site
          {
            OFFSET -1.1221 -3.69964 12.103
          }
        }
      }
    }
  }
  JOINT lButtock
  {
    OFFSET 8.77824 4.35084 1.2192
    CHANNELS 3 Zrotation Xrotation Yrotation
    JOINT lThigh
    {
      OFFSET 0 -1.70687 -2.19456
      CHANNELS 3 Zrotation Xrotation Yrotation
      JOINT lShin
      {
        OFFSET 0 -36.8199 0.73152
        CHANNELS 3 Zrotation Xrotation Yrotation
        JOINT lFoot
        {
          OFFSET -0.73152 -45.1104 -5.12064
          CHANNELS 3 Zrotation Xrotation Yrotation
          End Site
          {
            OFFSET 1.1221 -3.69964 12.103
          }
        }
      }
    }
  }
}
MOTION
Frames:	8
Frame Time:	0.00833333
0.0 0.0 0.0 0.0 0.0 0.0 0.0 0.0 0.0 0.0 0.0 0.0 0.0 0.0 0.0 0.0 0.0 0.0 0.0 0.0 0.0 0.0 0.0 0.0 0.0 0.0 0.0 0.0 0.0 0.0 0.0 0.0 0.0 0.0 0.0 0.0 0.0 0.0 0.0 0.0 0.0 0.0 0.0 0.0 0.0 0.0 0.0 0.0 0.0 0.0 0.0 0.0 0.0 0.0 0.0 0.0 0.0 0.0 0.0 0.0 0.0 0.0 0.0 0.0 0.0 0.0 0.0 0.0 0.0 0.0 0.0 0.0 0.0 0.0 0.0 0.0 0.0 0.0 0.0 0.0 0.0 0.0 0.0 0.0 0.0 0.0 0.0 0.0 0.0 0.0 0.0 0.0 0.0 0.0 0.0 0.0 0.0 0.0 0.0 0.0 0.0 0.0 0.0 0.0 0.0 0.0 0.0 0.0 0.0 0.0 0.0 0.0 0.0 0.0 0.0 0.0 0.0 0.0 0.0 0.0 0.0 0.0 0.0 0.0 0.0 0.0 0.0 0.0 0.0 0.0 0.0 0.0
-0.8633999824523926 46.45220184326172 -0.8108000159263611 -8.707722 -51.472545 10.342467 -12.859304 7.808781 58.512992 -2.653065 -22.016774 -34.797501 -28.114823 35.924445 -67.803492 49.213021 7.330229 88.376874 -44.702474 -18.986228 44.261766 151.19903 -1.412963 5.498988 -99.782076 -69.926076 -117.599551 -52.607832 -32.965463 -69.657508 34.688327 22.53259 -149.827681 -121.501137 46.042589 109.380942 -117.32174 47.291494 97.379089 -25.831547 -16.4932 -15.898277 -165.381709 -70.844258 163.244775 174.077551 1.597742 -172.133141 -0.204604 -40.912172 28.816928 -17.457331 19.519309 -54.259919 24.679424 -0.851017 3.970346 -57.677639 31.493222 13.721939 -134.404786 42.049129 -127.297393 -35.103382 37.516433 -60.174477 -7.279313 4.457794 -15.934071 -66.463163 -30.2216 -57.008719 -171.016829 -2.872073 -96.967531 -159.962902 -30.853317 -167.220768 173.527069 3.043747 -114.142852 57.327335 -6.555398 24.275421 -18.962017 -32.906714 -6.218113 57.160504 -32.054558 -18.538619 103.870738 -25.396693 162.437016 51.353223 -64.680321 156.43924 16.838585 -35.003267 35.541941 -89.624113 42.95385 58.919717 -0.552862 -27.619644 9.615722 -32.80224 8.751666 78.684852 148.58753 50.183423 14.102088 -172.174317 29.720408 165.114235 34.681202 -81.148842 132.158602 74.885609 20.515673 42.805751 128.681739 64.16807 43.553448 -126.570285 1.053389 -83.217388 -86.152106 5.21257 -63.122491 -176.794212 7.598298 -154.291237
-1.1842999458312988 51.21880340576172 0.11249999701976776 -10.592537 -52.508166 11.341378 -2.197744 7.864557 -176.211808 -2.603108 11.891453 -168.655244 -9.48294 37.002539 -92.740858 37.340502 17.608121 119.591514 5.38049 1.708975 35.220383 13.316062 2.641583 22.346146 -158.153206 -63.157549 175.019094 -42.062365 -12.24442 -35.622206 -172.691906 -16.322211 -79.919283 2.818181 -34.466165 1.698518 1.633662 -4.702456 -20.019923 -33.113186 -4.334764 18.547456 -158.801316 8.59068 103.633016 -174.88141 -2.963544 81.71663 52.643937 -70.28816 40.0815 -83.691857 68.481088 48.331802 -24.789889 2.953596 5.293362 -106.968824 -18.353652 -147.829269 22.780825 -77.950342 32.645314 -23.928658 50.20486 16.521964 -0.611223 -14.83269 4.528844 103.680518 -12.274827 -156.28736 -176.240888 20.723289 98.392286 25.514711 48.485654 -15.563795 166.650334 2.2317 -83.104746 -58.088676 -40.510985 -83.617792 9.402811 33.427048 6.835197 170.15572 36.412392 -50.397453 142.406291 -59.88174 -179.145268 162.194985 -51.90408 -139.817693 0.593724 -60.979481 5.948963 -35.593713 71.512605 40.263291 -174.751173 23.0774 129.279067 -127.003222 32.503988 167.717067 76.152849 12.981205 35.529009 -118.059057 -7.756072 -115.357615 -100.860531 1.994076 73.610449 -54.813657 -35.584879 -18.01472 -5.407163 5.452614 -10.05797 94.339547 -43.273251 9.90978 -101.070629 29.332497 -176.184407 -102.89318 63.031304 0.507059
-1.5394999980926514 54.623199462890625 0.09679999947547913 -11.555761 -56.483114 10.310022 -0.393394 10.193284 -179.189678 -0.036199 10.770804 -167.523463 16.125157 25.658873 100.694464 -28.204113 13.575356 -64.644698 14.039138 1.706852 13.79603 -5.95922 0.311774 -5.984346 -2.927569 10.53834 9.824838 -106.954976 -18.77725 171.111277 -177.208717 -23.883108 -69.729011 -10.45432 -36.870627 -6.890218 -171.773505 -9.760599 93.744617 -124.38835 6.237714 65.42022 -144.569041 -1.685678 116.776153 17.328928 17.699675 -9.522551 -160.818461 8.487577 143.118862 -9.713565 -7.436949 2.915613 2.121114 40.134757 7.391698 -124.220122 -76.746741 -128.588313 -117.016987 -23.717778 -111.446361 -123.356343 36.155754 -154.054425 156.912964 12.830794 -168.211299 44.958166 8.489629 19.943392 165.329148 38.594145 101.696809 7.485262 35.697384 -3.559652 171.564937 -4.460789 -82.940287 -22.889766 -58.488736 -37.345899 -12.266482 -17.131012 -7.738538 158.620042 -59.506559 -139.000129 4.690698 5.74724 -0.360048 -1.462277 -22.472425 6.128964 5.361457 3.009221 -0.69837 -9.973221 13.444508 6.909844 12.166028 -22.190816 -0.573809 128.848716 -5.475655 123.610281 146.81218 71.69538 24.843976 163.507163 34.35477 -5.556701 47.698183 89.158227 6.447358 175.674236 -27.515072 84.489091 179.741323 76.533964 1.719053 -140.872391 1.940998 -82.721729 -86.541956 17.019316 157.26269 -115.608591 38.161384 26.6996
-2.0160000324249268 52.79229736328125 0.4213000237941742 -11.005183 -55.612209 10.082836 -0.095531 7.727574 -174.112121 1.304886 7.572797 -168.978312 12.478995 29.393096 161.112656 -9.05485 32.60661 -123.557628 2.352133 -0.383642 -18.524692 -4.296501 -0.746915 19.714979 -3.886963 -86.372233 -26.295588 77.198668 43.643089 -76.766576 -155.566784 -61.054221 50.423292 -146.033758 24.207498 132.986528 48.488327 -44.259958 -1.355344 -99.450403 16.139065 70.921143 -92.122527 39.167114 68.920688 -177.076691 -37.609734 105.824964 -23.11453 44.547874 12.940037 2.985538 -5.748258 13.422479 2.086348 1.914546 -1.185679 -9.889265 -12.008384 -6.075735 -68.208264 -40.215554 -63.162711 -134.787924 25.736765 -155.507381 3.253929 -52.39841 18.453172 -68.648938 29.702856 3.202101 -8.305124 -21.489135 -84.854106 10.756346 49.049767 -6.178582 94.426347 30.667342 -55.243143 -134.058903 -56.627328 -47.343554 172.164609 -43.605042 -115.441785 172.221257 -12.405804 -117.323208 163.962097 -24.637408 -138.769704 -41.391863 -36.295244 -26.148272 143.445907 -5.432089 179.035854 137.839974 49.824755 -149.334507 -15.766656 31.181419 -9.866355 54.922279 -27.453499 48.67294 -156.720881 72.871576 -24.044587 142.435962 35.136908 102.301877 98.379116 -11.445393 61.962653 74.114852 31.564309 163.195227 9.946494 2.455304 11.606106 54.299163 -56.733558 -23.662159 -84.16366 2.873906 -14.473743 136.447627 -32.396851 -135.309398
-2.402100086212158 52.03239822387695 1.0706000328063965 -10.103647 -54.908719 9.867755 0.512327 10.034248 -28.200831 3.891496 -9.846633 45.546677 7.575125 11.676631 21.255895 -2.042033 -18.455028 14.435265 -6.705835 2.081666 -34.457934 -3.644815 -0.429632 13.440999 -5.226659 28.543699 8.968474 59.393242 8.041003 27.002561 172.281605 -5.768352 29.667485 -119.073524 43.294236 102.657209 26.688484 -20.099966 -5.279667 -120.544496 4.057859 93.926822 -140.110396 5.986635 108.165329 -163.173551 -19.398396 111.053622 -176.155628 -39.853853 147.307823 -38.897907 -78.533199 -66.346411 -151.10403 -10.353583 175.639818 -150.675014 5.581903 169.171978 -170.983665 58.098272 -133.660039 -171.554645 30.024599 -129.895418 50.385703 -81.666377 72.514577 101.136202 -26.97526 144.684398 -5.207929 -7.108249 116.995982 -153.652103 -36.819017 -141.862371 164.87751 -8.668989 -87.159671 -22.460475 -49.466571 -32.731618 148.880912 -12.104978 -122.596207 163.210919 -7.112629 -116.000882 -7.581803 1.016166 -2.369355 170.981629 18.323204 -152.954651 146.912937 28.245192 -174.812365 156.527074 -5.66415 -163.538927 146.276996 30.895286 136.676943 148.607103 62.766264 139.872399 34.680208 11.896047 32.403643 -74.882432 -5.269706 -109.761949 -90.929551 39.878542 175.636838 159.288199 72.881802 101.867442 -94.630028 46.992207 -50.208095 172.574385 7.180533 134.74686 84.421149 -11.455885 163.628262 -5.709294 51.521894 100.85351
-2.6953999996185303 52.18109893798828 1.7870999574661255 -9.78776 -54.717002 9.521655 -0.594159 11.11428 -1.65348 0.617914 -11.807994 18.43765 -6.152792 17.869865 -48.179115 32.298135 -2.390633 84.060269 -10.337265 2.515283 -27.283882 -7.6108 -0.459838 6.905013 7.025392 -61.915662 -10.985572 64.993542 34.262919 -48.958361 -177.205269 -51.421877 31.594856 -134.000867 34.655285 117.460292 177.920224 -24.019671 89.086733 39.530655 -71.10509 24.313063 -35.589091 29.81085 27.617019 -166.470662 -27.81758 117.388537 -12.341883 19.653373 0.809017 15.905271 -6.734892 23.240087 -120.475515 50.208648 134.01265 19.540536 -26.34487 -0.902413 25.12776 55.124488 6.051399 150.155174 83.348238 -124.070471 -1.166872 -40.548002 14.042652 -66.576828 4.085949 -3.997769 -162.611345 9.310853 -62.475564 -162.7458 -19.804859 -150.559388 6.669305 13.162725 -3.641254 -29.553018 -55.045539 23.115673 23.280546 30.237529 -12.028235 169.814358 -21.766502 -106.999895 -18.146063 -46.489857 8.775251 167.523287 -3.962061 -138.080674 1.677018 6.785676 1.79504 140.044708 -30.294805 165.94811 47.493728 -37.141685 48.391559 135.084005 -32.22193 137.459874 2.997792 -1.882328 5.474456 -34.651898 -26.39584 -38.636587 89.631748 87.652733 -9.481761 -172.811065 78.060548 72.683108 -85.410639 38.929278 -46.836751 160.928811 6.387121 101.713612 79.72965 31.204685 -170.536808 154.852914 -14.798845 -101.888292
-2.922499895095825 52.029300689697266 2.3315999507904053 -10.167045 -54.688174 10.119642 -0.40928 7.387818 -176.343325 -0.558359 8.499259 -167.383371 -10.551733 20.74477 -64.402623 36.112654 7.395391 94.923304 -8.675058 1.07848 -14.146867 -10.266731 -0.205206 2.283962 1.05397 -3.412128 1.471488 63.366297 30.123226 -1.144447 178.360758 -11.97376 29.533892 -128.6905 38.497786 112.914714 5.883244 -5.088308 -0.931196 -20.280416 18.646935 12.410228 -110.619413 30.446044 91.881165 -17.909437 35.136482 11.561123 -163.535242 -10.001102 150.686715 -171.263384 2.547788 163.774582 -130.733008 -75.444205 -147.8627 -159.568054 -40.732146 -178.108325 -113.888569 -36.861573 -113.703948 26.758127 59.007883 10.452843 -2.076181 -18.640398 8.6463 109.744704 -8.912676 -156.239905 8.429747 -19.588996 120.894857 -143.164118 -49.565866 -134.84888 -86.992468 -50.378349 -31.150253 150.828757 1.163698 -112.375239 20.776138 26.469895 -10.873973 14.744252 22.811045 -9.111383 7.69099 39.849556 -5.749501 6.503566 5.131551 -5.60412 -2.15617 12.096179 0.171666 22.806658 -65.867572 46.371679 148.360686 6.729268 128.292678 -1.527249 -3.491856 6.021875 -173.419848 77.303407 -6.45004 148.161504 37.405551 -36.900078 -95.395786 41.253944 0.325068 -156.297172 -60.484509 -67.740793 -5.253112 2.615474 -0.280814 78.241524 -44.368341 -18.023536 -76.396518 2.032661 87.938508 -72.457398 -18.17654 11.067314
